<svg xmlns="http://www.w3.org/2000/svg" xmlns:xlink="http://www.w3.org/1999/xlink" width="97.813" height="109.434" viewBox="0 0 97.813 109.434"><defs><filter id="a" x="-6" y="-6" width="115.813" height="127.434" filterUnits="userSpaceOnUse"><feOffset dx="3" dy="3" input="SourceAlpha"/><feGaussianBlur stdDeviation="3" result="b"/><feFlood flood-opacity="0.161"/><feComposite operator="in" in2="b"/><feComposite in="SourceGraphic"/></filter><clipPath id="c"><g transform="matrix(1, 0, 0, 1, 0, 0)" filter="url(#a)"><rect width="97.813" height="109.434" transform="translate(102.44 26.2) rotate(25)" fill="#fff"/></g></clipPath><filter id="d" x="28.257" y="-160.747" width="446.572" height="445.371" filterUnits="userSpaceOnUse"><feOffset dx="3" dy="3" input="SourceAlpha"/><feGaussianBlur stdDeviation="3" result="e"/><feFlood flood-opacity="0.161"/><feComposite operator="in" in2="e"/><feComposite in="SourceGraphic"/></filter></defs><g transform="translate(201.729 89.889) rotate(155)" clip-path="url(#c)"><g transform="matrix(0.07, 0.998, -0.998, 0.07, 91.358, -159.025)"><g transform="matrix(-0.48, 0.87, -0.87, -0.48, 328.68, -30.63)" filter="url(#d)"><path d="M268.321,49.909a156.062,156.062,0,1,1-64.187-39.5,23.1,23.1,0,0,0,16.276-.832C245.343-1.54,272.275.083,272.275.083c-1,.874-2,1.748-2.914,2.622A33.065,33.065,0,0,0,268.321,49.909Z" transform="translate(186.14 272.62) rotate(-119)" fill="#fff"/></g></g></g></svg>